<svg width="34" height="34" viewBox="0 0 34 34" fill="none" xmlns="http://www.w3.org/2000/svg">
<path d="M8.5 4.25H18.0625C19.4279 4.25043 20.7669 4.62662 21.9328 5.33737C23.0986 6.04813 24.0464 7.06602 24.6722 8.27957C25.2981 9.49311 25.5779 10.8555 25.481 12.2175C25.3842 13.5795 24.9143 14.8885 24.123 16.0013C25.4956 16.8551 26.5525 18.1331 27.1337 19.6415C27.7148 21.15 27.7885 22.8067 27.3437 24.3608C26.8988 25.9149 25.9596 27.2817 24.6683 28.2541C23.377 29.2266 21.804 29.7517 20.1875 29.75H8.5C7.93642 29.75 7.39591 29.5261 6.9974 29.1276C6.59888 28.7291 6.375 28.1886 6.375 27.625V6.375C6.375 5.81142 6.59888 5.27091 6.9974 4.8724C7.39591 4.47388 7.93642 4.25 8.5 4.25ZM10.625 19.125V25.5H20.1875C21.0329 25.5 21.8436 25.1642 22.4414 24.5664C23.0392 23.9686 23.375 23.1579 23.375 22.3125C23.375 21.4671 23.0392 20.6564 22.4414 20.0586C21.8436 19.4608 21.0329 19.125 20.1875 19.125H10.625ZM18.0625 14.875C18.9079 14.875 19.7186 14.5392 20.3164 13.9414C20.9142 13.3436 21.25 12.5329 21.25 11.6875C21.25 10.8421 20.9142 10.0314 20.3164 9.4336C19.7186 8.83582 18.9079 8.5 18.0625 8.5H10.625V14.875H18.0625Z" fill="black"/>
</svg>
