<svg width="20" height="21" viewBox="0 0 20 21" fill="none" xmlns="http://www.w3.org/2000/svg">
<path d="M14.1667 18.2084H5.83342C5.49175 18.2084 5.20842 17.925 5.20842 17.5834C5.20842 17.2417 5.49175 16.9584 5.83342 16.9584H14.1667C16.5501 16.9584 17.7084 15.8 17.7084 13.4167V7.58335C17.7084 5.20002 16.5501 4.04169 14.1667 4.04169H5.83342C3.45008 4.04169 2.29175 5.20002 2.29175 7.58335C2.29175 7.92502 2.00841 8.20835 1.66675 8.20835C1.32508 8.20835 1.04175 7.92502 1.04175 7.58335C1.04175 4.54169 2.79175 2.79169 5.83342 2.79169H14.1667C17.2084 2.79169 18.9584 4.54169 18.9584 7.58335V13.4167C18.9584 16.4584 17.2084 18.2084 14.1667 18.2084Z" fill="#7653F6"/>
<path d="M9.99973 11.225C9.29973 11.225 8.5914 11.0083 8.04974 10.5666L5.4414 8.48331C5.17473 8.26664 5.12474 7.87497 5.3414 7.60831C5.55807 7.34164 5.94973 7.29164 6.21639 7.50831L8.82473 9.59164C9.45806 10.1 10.5331 10.1 11.1664 9.59164L13.7747 7.50831C14.0414 7.29164 14.4414 7.33331 14.6497 7.60831C14.8664 7.87497 14.8247 8.27498 14.5497 8.48331L11.9414 10.5666C11.4081 11.0083 10.6997 11.225 9.99973 11.225Z" fill="#7653F6"/>
<path d="M6.66675 14.875H1.66675C1.32508 14.875 1.04175 14.5917 1.04175 14.25C1.04175 13.9083 1.32508 13.625 1.66675 13.625H6.66675C7.00841 13.625 7.29175 13.9083 7.29175 14.25C7.29175 14.5917 7.00841 14.875 6.66675 14.875Z" fill="#7653F6"/>
<path d="M4.16675 11.5417H1.66675C1.32508 11.5417 1.04175 11.2584 1.04175 10.9167C1.04175 10.575 1.32508 10.2917 1.66675 10.2917H4.16675C4.50841 10.2917 4.79175 10.575 4.79175 10.9167C4.79175 11.2584 4.50841 11.5417 4.16675 11.5417Z" fill="#7653F6"/>
</svg>
