<svg width="16" height="16" viewBox="0 0 16 16" fill="none" xmlns="http://www.w3.org/2000/svg">
<path d="M12 13C11.5467 13 11.1434 12.9213 10.79 12.764C10.4477 12.6138 10.1558 12.3684 9.94904 12.057C9.74571 11.7423 9.64404 11.3523 9.64404 10.887C9.64404 10.493 9.71638 10.162 9.86104 9.89397C10.0017 9.63292 10.2048 9.41066 10.452 9.24697C10.7014 9.08364 10.9847 8.96064 11.302 8.87797C11.622 8.79464 11.9587 8.73631 12.312 8.70297C12.724 8.66031 13.0567 8.62031 13.31 8.58297C13.5627 8.54297 13.746 8.48464 13.86 8.40797C14.031 8.29297 14.031 8.21697 14.031 8.06597V8.03797C14.031 7.74597 13.9387 7.51964 13.754 7.35897C13.572 7.19897 13.3134 7.11897 12.978 7.11897C12.624 7.11897 12.3424 7.19764 12.133 7.35497C12.0465 7.41801 11.9688 7.49234 11.902 7.57597C11.755 7.76297 11.547 7.92397 11.31 7.90397L10.465 7.83597C10.164 7.81097 9.94904 7.52397 10.073 7.24897C10.1678 7.03999 10.2921 6.84568 10.442 6.67197C10.7127 6.35531 11.0627 6.11197 11.492 5.94197C11.9227 5.76931 12.4227 5.68264 12.992 5.68197C13.3731 5.68061 13.7528 5.72765 14.122 5.82197C14.4854 5.91464 14.807 6.05764 15.087 6.25097C15.3697 6.44431 15.593 6.69364 15.757 6.99897C15.9204 7.29964 16.002 7.66297 16.002 8.08897V12.369C16.002 12.5016 15.9494 12.6288 15.8556 12.7225C15.7618 12.8163 15.6347 12.869 15.502 12.869H14.636C14.5034 12.869 14.3763 12.8163 14.2825 12.7225C14.1887 12.6288 14.136 12.5016 14.136 12.369V11.885H14.081C13.9667 12.1071 13.8116 12.3059 13.624 12.471C13.4334 12.637 13.204 12.768 12.936 12.864C12.6363 12.96 12.3228 13.0066 12.008 13.002L12 13ZM12.563 11.64C12.8524 11.64 13.108 11.583 13.33 11.469C13.552 11.3516 13.726 11.1946 13.852 10.998C14.041 10.703 14.041 10.578 14.041 10.328V9.57497C13.9797 9.61497 13.895 9.65197 13.787 9.68597C13.6824 9.71664 13.5637 9.74598 13.431 9.77397C13.299 9.79879 13.1666 9.82212 13.034 9.84397L12.674 9.89397C12.4662 9.92132 12.2628 9.97578 12.069 10.056C11.9117 10.1202 11.7734 10.2234 11.667 10.356C11.5683 10.4893 11.5178 10.6522 11.524 10.818C11.524 11.086 11.621 11.2906 11.815 11.432C12.0117 11.5706 12.261 11.64 12.563 11.64Z" fill="#7653F6"/>
<path fill-rule="evenodd" clip-rule="evenodd" d="M5.47009 1.34C5.43555 1.24112 5.37089 1.15555 5.2852 1.09532C5.19951 1.0351 5.0971 1.00324 4.99237 1.00423C4.88763 1.00523 4.78584 1.03902 4.70131 1.10086C4.61678 1.1627 4.55375 1.24948 4.52109 1.349L1.24109 11.649C1.20888 11.75 1.14541 11.8381 1.05985 11.9006C0.974295 11.9632 0.871076 11.9969 0.765094 11.997H0.496094C0.363486 11.997 0.236309 12.0497 0.14254 12.1434C0.0487722 12.2372 -0.00390625 12.3644 -0.00390625 12.497C-0.00390625 12.6296 0.0487722 12.7568 0.14254 12.8506C0.236309 12.9443 0.363486 12.997 0.496094 12.997H2.99609C3.1287 12.997 3.25588 12.9443 3.34965 12.8506C3.44342 12.7568 3.49609 12.6296 3.49609 12.497C3.49609 12.3644 3.44342 12.2372 3.34965 12.1434C3.25588 12.0497 3.1287 11.997 2.99609 11.997H2.52209C2.48277 11.997 2.444 11.9877 2.40895 11.9698C2.37389 11.952 2.34353 11.9262 2.32035 11.8944C2.29716 11.8626 2.28179 11.8259 2.27549 11.787C2.26919 11.7482 2.27214 11.7085 2.28409 11.671L2.70609 10.341C2.73831 10.24 2.80178 10.1519 2.88734 10.0894C2.97289 10.0268 3.07611 9.99307 3.18209 9.993H6.04209C6.14783 9.99294 6.25086 10.0264 6.33639 10.0886C6.42191 10.1507 6.48553 10.2384 6.51809 10.339L6.94809 11.669C6.96024 11.7065 6.96334 11.7464 6.95713 11.7853C6.95092 11.8243 6.93559 11.8612 6.91238 11.8931C6.88917 11.925 6.85874 11.951 6.82358 11.9688C6.78843 11.9867 6.74954 11.996 6.71009 11.996H6.49109C6.35849 11.996 6.23131 12.0487 6.13754 12.1424C6.04377 12.2362 5.99109 12.3634 5.99109 12.496C5.99109 12.6286 6.04377 12.7558 6.13754 12.8496C6.23131 12.9433 6.35849 12.996 6.49109 12.996H9.49109C9.6237 12.996 9.75088 12.9433 9.84465 12.8496C9.93841 12.7558 9.99109 12.6286 9.99109 12.496C9.99109 12.3634 9.93841 12.2362 9.84465 12.1424C9.75088 12.0487 9.6237 11.996 9.49109 11.996H9.45709C9.35274 11.9959 9.25102 11.9632 9.16619 11.9024C9.08137 11.8416 9.0177 11.7558 8.98409 11.657L5.46409 1.357L5.47009 1.34ZM5.84609 9C5.87367 8.99993 5.90083 8.99334 5.92537 8.98078C5.94991 8.96822 5.97114 8.95003 5.98732 8.92771C6.00351 8.90539 6.01418 8.87956 6.01849 8.85232C6.02279 8.82509 6.0206 8.79723 6.01209 8.771L4.76209 4.921C4.75071 4.8858 4.72846 4.85512 4.69854 4.83336C4.66863 4.8116 4.63259 4.79988 4.59559 4.79988C4.5586 4.79988 4.52256 4.8116 4.49265 4.83336C4.46273 4.85512 4.44048 4.8858 4.42909 4.921L3.20909 8.771C3.20056 8.79731 3.19838 8.82526 3.20274 8.85257C3.2071 8.87988 3.21786 8.90577 3.23416 8.92811C3.25045 8.95046 3.27181 8.96862 3.29648 8.98112C3.32116 8.99361 3.34844 9.00009 3.37609 9H5.84609Z" fill="#7653F6"/>
</svg>
