<svg width="14" height="16" viewBox="0 0 14 16" fill="none" xmlns="http://www.w3.org/2000/svg">
<path d="M12.6667 5.33333H10C8.89333 5.33333 8 4.44 8 3.33333V0.666667C8 0.293333 7.70667 0 7.33333 0H1.33333C0.6 0 0 0.6 0 1.33333V14.6667C0 15.4 0.6 16 1.33333 16H12C12.7333 16 13.3333 15.4 13.3333 14.6667V6C13.3333 5.62667 13.04 5.33333 12.6667 5.33333ZM4.66667 13.3333H3.33333C2.96 13.3333 2.66667 13.04 2.66667 12.6667C2.66667 12.2933 2.96 12 3.33333 12H4.66667C5.04 12 5.33333 12.2933 5.33333 12.6667C5.33333 13.04 5.04 13.3333 4.66667 13.3333ZM4.66667 10.6667H3.33333C2.96 10.6667 2.66667 10.3733 2.66667 10C2.66667 9.62667 2.96 9.33333 3.33333 9.33333H4.66667C5.04 9.33333 5.33333 9.62667 5.33333 10C5.33333 10.3733 5.04 10.6667 4.66667 10.6667ZM4.66667 8H3.33333C2.96 8 2.66667 7.70667 2.66667 7.33333C2.66667 6.96 2.96 6.66667 3.33333 6.66667H4.66667C5.04 6.66667 5.33333 6.96 5.33333 7.33333C5.33333 7.70667 5.04 8 4.66667 8ZM10 13.3333H7.33333C6.96 13.3333 6.66667 13.04 6.66667 12.6667C6.66667 12.2933 6.96 12 7.33333 12H10C10.3733 12 10.6667 12.2933 10.6667 12.6667C10.6667 13.04 10.3733 13.3333 10 13.3333ZM10 10.6667H7.33333C6.96 10.6667 6.66667 10.3733 6.66667 10C6.66667 9.62667 6.96 9.33333 7.33333 9.33333H10C10.3733 9.33333 10.6667 9.62667 10.6667 10C10.6667 10.3733 10.3733 10.6667 10 10.6667ZM10 8H7.33333C6.96 8 6.66667 7.70667 6.66667 7.33333C6.66667 6.96 6.96 6.66667 7.33333 6.66667H10C10.3733 6.66667 10.6667 6.96 10.6667 7.33333C10.6667 7.70667 10.3733 8 10 8ZM9.33333 0.666667V2.66667C9.33333 3.4 9.93333 4 10.6667 4H12.6667C13.2667 4 13.56 3.28 13.1333 2.86667L10.4667 0.2C10.0533 -0.226667 9.33333 0.08 9.33333 0.666667Z" fill="white"/>
</svg>
