<svg width="34" height="33" viewBox="0 0 34 33" fill="none" xmlns="http://www.w3.org/2000/svg">
<path d="M20.6946 1.55404C21.1597 1.06913 21.7169 0.681928 22.3335 0.415124C22.9502 0.14832 23.6139 0.00728185 24.2857 0.000274603C24.9576 -0.00673265 25.6241 0.120432 26.2462 0.374316C26.8683 0.628201 27.4334 1.0037 27.9085 1.4788C28.3836 1.95391 28.7591 2.51906 29.013 3.14115C29.2669 3.76324 29.3941 4.42974 29.3871 5.1016C29.3801 5.77347 29.239 6.43717 28.9722 7.05383C28.7054 7.67049 28.3182 8.22769 27.8333 8.69278L25.2066 11.3174L25.3842 11.495C25.7679 11.8785 26.0722 12.3339 26.2799 12.8351C26.4876 13.3363 26.5944 13.8734 26.5944 14.4159C26.5944 14.9585 26.4876 15.4956 26.2799 15.9968C26.0722 16.498 25.7679 16.9534 25.3842 17.3369L22.4106 20.3085C22.2159 20.4965 21.955 20.6006 21.6843 20.5983C21.4136 20.5959 21.1546 20.4873 20.9632 20.2959C20.7718 20.1044 20.6632 19.8455 20.6608 19.5748C20.6585 19.304 20.7625 19.0432 20.9506 18.8485L23.9242 15.8749C24.3114 15.4876 24.5288 14.9625 24.5288 14.4149C24.5288 13.8674 24.3114 13.3422 23.9242 12.955L23.7466 12.7774L10.0226 26.5035C9.88974 26.6356 9.72341 26.7292 9.54145 26.774L1.28141 28.839C1.10204 28.8836 0.914005 28.8792 0.736921 28.8262C0.559837 28.7733 0.400202 28.6739 0.274676 28.5382C0.149151 28.4026 0.0623371 28.2357 0.0232974 28.0551C-0.0157422 27.8744 -0.00557682 27.6866 0.0527323 27.5112L2.63399 19.7674C2.68434 19.6158 2.76916 19.478 2.88179 19.3647L20.6946 1.55404ZM2.61747 30.7388L2.51422 30.6603L5.29786 29.9644C6.40883 30.522 7.75109 30.935 9.29158 30.935C10.3385 30.935 11.3855 30.5695 12.4593 29.9582C13.5372 29.3429 14.5739 28.5231 15.6105 27.6826L15.879 27.4637C16.7979 26.7141 17.7416 25.9459 18.6399 25.4152C19.6146 24.8411 20.7957 24.3889 22.0079 24.7957C23.7053 25.3595 24.2402 26.9206 24.7358 28.5747C24.8494 28.9526 25.0435 29.3264 25.2727 29.5845C25.5019 29.8426 25.6857 29.9025 25.8117 29.9025C26.1978 29.9025 26.7533 29.6939 27.4575 29.2768C27.9035 29.0145 28.2897 28.7481 28.6717 28.4838C28.903 28.3214 29.1391 28.1617 29.38 28.0047C30.0367 27.5794 30.6025 27.2944 31.0113 27.1147C31.2212 27.0233 31.4348 26.9406 31.6515 26.8669L31.6928 26.8545L31.7093 26.8504L31.7155 26.8483L32.0067 27.8395L31.7176 26.8483C31.9775 26.7798 32.2539 26.8153 32.488 26.9474C32.7221 27.0794 32.8956 27.2976 32.9714 27.5554C33.0472 27.8133 33.0195 28.0906 32.8941 28.3284C32.7687 28.5661 32.5556 28.7456 32.2999 28.8287L32.2855 28.8328L32.2029 28.8617C32.0816 28.9062 31.9618 28.9544 31.8435 29.0063C31.5235 29.1467 31.0588 29.378 30.5034 29.7373C30.3588 29.8323 30.1709 29.9603 29.9603 30.1049C29.5307 30.4002 29 30.7657 28.5065 31.0548C27.759 31.4967 26.7925 31.9675 25.8117 31.9675C24.9031 31.9675 24.2009 31.4884 23.7301 30.9556C23.2805 30.4368 22.9487 29.8267 22.7575 29.1673C22.2144 27.3584 21.9026 26.9371 21.3533 26.7513C21.0188 26.6418 20.5211 26.7038 19.6889 27.1953C18.9331 27.6413 18.1112 28.3104 17.1531 29.0889L16.9115 29.285C15.8831 30.1214 14.7267 31.0424 13.4815 31.7527C12.2322 32.4631 10.8259 33 9.29158 33C6.42535 33 4.15177 31.8539 2.61747 30.7388Z" fill="black"/>
</svg>
