<svg width="38" height="42" viewBox="0 0 38 42" fill="none" xmlns="http://www.w3.org/2000/svg">
<path d="M19 23.1C24.0582 23.1 28.6583 24.5574 32.0424 26.6091C33.7313 27.6381 35.1753 28.8456 36.2182 30.1581C37.2442 31.4517 38 32.9973 38 34.65C38 36.4245 37.1323 37.8231 35.8826 38.8206C34.7003 39.7656 33.1402 40.3914 31.483 40.8282C28.1517 41.7039 23.7057 42 19 42C14.2943 42 9.84833 41.706 6.517 40.8282C4.85978 40.3914 3.29967 39.7656 2.11744 38.8206C0.865555 37.821 0 36.4245 0 34.65C0 32.9973 0.755778 31.4517 1.78178 30.1581C2.82467 28.8456 4.26656 27.6381 5.95756 26.6091C9.34167 24.5574 13.9439 23.1 19 23.1Z" fill="black"/>
<path opacity="0.3" d="M18.9993 0C27.1249 0 32.2043 8.75069 28.1404 15.75C27.2139 17.3461 25.8815 18.6716 24.2769 19.5932C22.6723 20.5147 20.8521 20.9999 18.9993 21C10.8736 21 5.79425 12.2493 9.85814 5.25C10.7846 3.65383 12.117 2.32836 13.7216 1.4068C15.3262 0.485234 17.1464 4.68218e-05 18.9993 0Z" fill="black"/>
</svg>
